<svg xmlns="http://www.w3.org/2000/svg" version="1.1" xmlns:xlink="http://www.w3.org/1999/xlink" xmlns:svgjs="http://svgjs.dev/svgjs" viewBox="0 0 800 800"><defs><linearGradient x1="50%" y1="0%" x2="50%" y2="100%" id="ccchaos-grad"><stop stop-color="hsl(206, 75%, 49%)" stop-opacity="1" offset="0%"></stop><stop stop-color="hsl(331, 90%, 56%)" stop-opacity="1" offset="100%"></stop></linearGradient></defs><g stroke-width="2" stroke="url(#ccchaos-grad)" fill="none" stroke-linecap="round"><path d="M422.48 107.2C432.88 105.2 443.14 103.95 453.19 103.47 463.2 103.3 472.92 103.94 482.24 105.38 491.38 107.17 499.95 109.75 507.79 113.08 515.26 116.73 521.82 121.08 527.33 126.07 532.36 131.3 536.3 137.1 539.15 143.4 541.75 149.83 543.59 156.68 544.94 163.88 546.83 171.12 549 178.64 551.98 186.39 556.64 194.1 562.96 201.99 571.31 210.03 581.97 217.97 594.72 226.04 609.27 234.23 624.98 242.28 641.06 250.45 656.43 258.72 670.02 266.86 680.72 275.13 687.49 283.53 690.2 291.81 688.35 300.25 682.32 308.84 673.81 317.34 663.61 326.03 653.5 334.91 646.01 343.73 642.08 352.77 642.93 362.02 649.32 371.24 660.38 380.69 674.8 390.38 690.79 400.06 705.69 409.99 716.98 420.16 723.1 430.33 722.55 440.51 715.58 450.67 703.72 460.83 688.44 470.96 672.05 481.02 656.93 491.07 644.77 501.03 636.77 510.85 633.81 520.62 635.3 530.22 640.29 539.58 648.09 548.84 656.52 557.8 664.01 566.39 669.94 574.82 672.58 582.82 671.45 590.3 666.86 597.54 658.58 604.2 647.3 610.21 633.85 615.92 618.96 620.93 603.55 625.2 588.24 629.15 573.71 632.36 560.41 634.81 548.5 637 538.13 638.51 529.18 639.35 518.41 640.24 501.96 640.03 494.59 639.53 489.9 639.64 484.73 639.84 478.96 640.24 473.15 641.39 466.62 642.91 459.34 644.85 451.98 647.66 443.9 650.94 435.13 654.66 426.32 659.17 416.87 663.98 406.84 668.98 396.8 674.45 386.46 679.67 375.88 684.49 365.33 689.29 354.56 693.37 343.65 696.6 332.81 699.39 321.87 701.11 310.91 701.7 300.12 701.62 289.43 700.32 278.97 697.84 268.84 694.63 259.11 690.28 249.95 684.89 241.31 678.88 233.41 671.97 226.35 664.27 219.89 656.16 214.31 647.43 209.59 638.21 205.24 628.78 201.5 619.02 198.22 609.03 194.73 599.01 191.24 588.86 187.54 578.66 183.02 568.54 177.97 558.43 172.33 548.36 165.78 538.42 158.81 528.53 151.64 518.72 144.27 509.03 137.33 499.4 131.19 489.82 125.82 480.35 121.78 470.89 119.21 461.45 117.67 452.08 117.41 442.7 118.19 433.29 119.14 423.93 120.33 414.51 121.39 405.06 121.5 395.63 120.98 386.14 119.83 376.61 117.7 367.08 115.5 357.74 113.62 348.61 111.99 339.48 111.51 330.56 112.42 321.89 114.42 313.22 117.92 304.82 122.72 296.69 128.18 288.59 134.32 280.79 140.74 273.32 146.74 265.88 152.38 258.78 157.49 252.04 161.58 245.33 165.09 238.98 168.17 233.01 170.57 227.05 173.01 221.44 175.77 216.21 178.65 210.94 182.34 206 186.98 201.4 192.33 196.69 198.78 192.27 206.26 188.11 214.51 183.78 223.62 179.66 233.39 175.73 243.63 171.55 254.26 167.52 265.1 163.62 276.06 159.43 287.03 155.33 297.94 151.34 308.76 147.05 319.45 142.86 330 138.81 340.41 134.51 350.73 130.39 360.99 126.51 371.16 122.48 381.34 118.77 391.57 115.46 401.77 112.17 412.07 109.38 422.47 107.2" stroke-dasharray="4 6" transform="rotate(0, 400, 400)" opacity="0.28"></path><path d="M419.78 118C429.73 116.02 439.32 114.76 448.52 114.23 457.66 113.99 466.33 114.52 474.42 115.82 482.36 117.45 489.6 119.83 496.05 122.93 502.24 126.35 507.55 130.44 511.94 135.16 516.11 140.11 519.46 145.63 522.12 151.63 524.92 157.79 527.43 164.37 530 171.31 533.47 178.31 537.67 185.6 543.03 193.14 550.11 200.66 558.87 208.38 569.46 216.26 581.83 224.06 595.71 232.01 610.61 240.08 625.8 248.04 640.53 256.12 653.8 264.3 664.79 272.37 672.6 280.55 676.53 288.85 676.79 297.06 673.13 305.39 666.11 313.87 657.49 322.26 648 330.82 639.25 339.54 633.4 348.21 631.12 357.06 633.32 366.09 640.49 375.1 651.71 384.31 665.7 393.72 680.89 403.12 694.89 412.74 705.5 422.55 711.4 432.36 711.21 442.15 705.12 451.88 694.42 461.61 680.3 471.28 664.76 480.84 649.93 490.39 637.32 499.81 628.19 509.05 623.48 518.25 622.93 527.24 625.9 535.95 631.99 544.57 639.37 552.87 646.65 560.78 653.28 568.53 657.52 575.84 658.71 582.63 656.99 589.21 651.8 595.22 643.52 600.61 632.8 605.74 620.09 610.22 606.18 614 591.64 617.53 577.14 620.38 563.21 622.55 550.08 624.54 538.08 625.91 527.29 626.71 517.7 627.49 509.19 627.83 501.55 627.8 494.82 627.98 488.57 627.99 482.53 627.9 476.94 628.29 471.21 628.78 465.18 629.46 459.28 630.84 452.88 632.55 445.91 634.62 438.94 637.5 431.35 640.78 423.14 644.43 414.9 648.8 406.06 653.42 396.65 658.17 387.23 663.37 377.5 668.31 367.53 672.87 357.61 677.44 347.5 681.34 337.29 684.45 327.19 687.2 317.08 688.97 307.05 689.7 297.25 689.84 287.66 688.86 278.43 686.79 269.56 684.05 261.2 680.25 253.47 675.46 246.23 670.1 239.71 663.85 234 656.83 228.72 649.39 224.16 641.32 220.26 632.74 216.47 623.93 213.06 614.75 209.83 605.28 206.16 595.75 202.28 586.03 198.04 576.22 192.91 566.45 187.23 556.63 181 546.82 174.01 537.11 166.75 527.42 159.48 517.78 152.22 508.25 145.56 498.76 139.85 489.32 135 479.98 131.51 470.66 129.47 461.37 128.41 452.15 128.53 442.94 129.57 433.74 130.68 424.57 131.95 415.39 133.02 406.2 133.1 397.03 132.53 387.84 131.31 378.65 129.12 369.47 126.8 360.49 124.77 351.74 122.93 342.99 122.18 334.48 122.75 326.22 124.39 317.97 127.52 309.98 132 302.28 137.24 294.59 143.27 287.2 149.73 280.14 155.94 273.09 161.93 266.37 167.48 259.99 172.08 253.62 176.08 247.59 179.55 241.91 183.46 233.54 191.2 218.36 196.4 211.48 200.61 206.88 205.81 202.53 211.97 198.42 218.85 194.12 226.66 190.01 235.24 186.08 244.39 181.9 254.11 177.85 264.22 173.93 274.62 169.72 285.2 165.61 295.85 161.61 306.57 157.33 317.24 153.16 327.82 149.13 338.37 144.87 348.81 140.8 359.13 136.97 369.41 133.01 379.6 129.37 389.71 126.12 399.8 122.89 409.83 120.16 419.77 118" stroke-dasharray="8 8" transform="rotate(4.04, 400, 400)" opacity="0.50"></path><path d="M413 128.8C422.4 126.84 431.31 125.57 439.71 125 448.05 124.69 455.8 125.13 462.92 126.28 469.91 127.75 476.2 129.94 481.76 132.82 487.17 136 491.87 139.83 495.88 144.26 499.92 148.94 503.47 154.16 506.74 159.87 510.44 165.73 514.3 172.02 518.61 178.68 524 185.41 530.38 192.45 538.04 199.74 547.24 207.04 557.92 214.55 570.04 222.24 583.32 229.87 597.43 237.66 611.81 245.57 625.74 253.41 638.53 261.36 649.31 269.41 657.57 277.38 662.59 285.45 663.96 293.63 662.2 301.73 657.21 309.95 649.68 318.28 641.34 326.55 632.83 334.96 625.55 343.5 621.33 352 620.6 360.65 623.99 369.46 631.79 378.25 643.05 387.2 656.57 396.32 670.94 405.43 684.06 414.71 694.02 424.15 699.7 433.6 699.83 442.98 694.55 452.27 684.97 461.56 672.02 470.75 657.41 479.81 643.01 488.84 630.2 497.72 620.2 506.39 613.98 515.01 611.54 523.39 612.51 531.48 616.73 539.47 622.71 547.12 629.29 554.38 636 561.49 641.19 568.15 644.09 574.31 644.75 580.28 642.34 585.7 636.99 590.54 629.21 595.15 619.11 599.16 607.33 602.54 594.39 605.71 580.84 608.27 567.23 610.23 553.81 612.06 541.01 613.36 529.05 614.16 517.94 614.99 507.78 615.45 498.49 615.61 490.04 616 482.23 616.25 474.87 616.45 468.04 617.1 461.36 617.86 454.66 618.8 448.19 620.38 441.49 622.25 434.47 624.45 427.49 627.37 420.09 630.63 412.22 634.21 404.34 638.42 395.98 642.85 387.15 647.37 378.32 652.29 369.25 656.97 360.02 661.27 350.84 665.6 341.56 669.32 332.28 672.31 323.12 675 314.05 676.8 305.18 677.65 296.54 677.98 288.22 677.29 280.34 675.58 272.8 673.28 265.8 669.99 259.45 665.76 253.47 661 248.15 655.39 243.51 649.03 239.1 642.26 235.21 634.86 231.77 626.94 228.18 618.76 224.72 610.17 221.23 601.28 217.13 592.27 212.68 583.05 207.77 573.69 202 564.32 195.71 554.87 188.97 545.39 181.66 535.97 174.26 526.54 167.04 517.15 160.04 507.83 153.79 498.54 148.6 489.31 144.34 480.14 141.43 471 139.94 461.92 139.33 452.88 139.8 443.87 141.07 434.89 142.31 425.94 143.62 417 144.66 408.09 144.71 399.19 144.08 390.3 142.8 381.44 140.54 372.58 138.14 363.95 135.97 355.57 133.95 347.19 132.94 339.05 133.17 331.18 134.43 323.31 137.17 315.71 141.26 308.4 146.2 301.09 152.04 294.07 158.44 287.37 164.77 280.67 171.03 274.29 176.97 268.23 182.09 262.16 186.63 256.41 190.6 250.98 195.07 242.94 202.61 228.25 206.94 221.53 210.24 217.01 214.34 212.72 219.29 208.63 224.82 204.36 231.26 200.26 238.51 196.31 246.34 192.13 254.85 188.06 263.88 184.12 273.31 179.91 283.08 175.79 293.06 171.79 303.23 167.52 313.48 163.38 323.71 159.38 334 155.18 344.22 151.16 354.3 147.39 364.41 143.51 374.38 139.95 384.17 136.77 393.97 133.61 403.6 130.93 412.99 128.8" stroke-dasharray="3 9" transform="rotate(8.08, 400, 400)" opacity="0.76"></path><path d="M403.54 139.61C412.35 137.67 420.62 136.4 428.34 135.78 436.02 135.42 443.1 135.75 449.57 136.77 455.99 138.09 461.79 140.09 466.99 142.75 472.19 145.69 476.9 149.26 481.21 153.41 485.74 157.79 490.13 162.71 494.58 168.1 499.65 173.67 505.18 179.65 511.42 186 518.74 192.44 527.11 199.2 536.66 206.22 547.42 213.26 559.31 220.54 572.12 227.99 585.46 235.43 598.97 243.02 612.07 250.74 624.16 258.41 634.61 266.2 642.72 274.09 648.3 281.92 650.77 289.85 649.97 297.87 646.66 305.84 640.83 313.9 633.23 322.07 625.51 330.19 618.18 338.43 612.44 346.77 609.81 355.08 610.51 363.52 614.93 372.08 623.21 380.63 634.41 389.31 647.39 398.12 660.95 406.92 673.21 415.86 682.53 424.92 687.98 433.98 688.41 442.94 683.89 451.79 675.38 460.63 663.59 469.34 649.96 477.88 636.14 486.4 623.35 494.74 612.72 502.84 605.27 510.89 601.13 518.68 600.2 526.16 602.47 533.55 606.81 540.59 612.28 547.23 618.52 553.73 624.02 559.8 627.99 565.38 630.38 573.25 619.04 586.02 606.12 590.86 595.39 593.74 583.54 596.08 571.07 597.88 558.27 599.61 545.57 600.88 533.27 601.73 521.39 602.64 510.2 603.24 499.73 603.6 489.9 604.2 480.73 604.7 472.12 605.16 464.01 606.07 456.25 607.08 448.7 608.24 441.42 610.01 434.15 612.02 426.8 614.31 419.55 617.26 412.08 620.5 404.35 623.98 396.64 628.05 388.62 632.28 380.3 636.57 371.98 641.22 363.57 645.63 355.12 649.69 346.72 653.78 338.34 657.31 330.08 660.18 321.92 662.8 313.97 664.6 306.31 665.54 298.85 666.04 291.79 665.59 285.2 664.21 278.87 662.32 273.08 659.49 267.87 655.79 262.88 651.6 258.43 646.6 254.49 640.88 250.57 634.76 246.96 628.02 243.57 620.74 239.84 613.21 236.04 605.25 232.02 596.95 227.31 588.51 222.18 579.82 216.56 570.95 210.17 562.05 203.36 553.02 196.25 543.94 188.78 534.87 181.41 525.78 174.42 516.69 167.81 507.65 162.09 498.62 157.51 489.63 153.88 480.7 151.59 471.8 150.62 462.94 150.44 454.13 151.22 445.35 152.67 436.62 154 427.91 155.32 419.24 156.32 410.6 156.31 401.99 155.62 393.4 154.28 384.86 151.98 376.33 149.52 368.04 147.23 360.01 145.05 351.97 143.79 344.19 143.7 336.68 144.57 329.17 146.87 321.92 150.54 314.97 155.1 308 160.66 301.33 166.9 294.95 173.25 288.57 179.68 282.48 185.94 276.69 191.53 270.88 196.61 265.37 201.14 260.16 206.39 252.4 214.48 238.11 218.38 231.51 221.07 227.06 224.34 222.8 228.27 218.73 232.62 214.48 237.76 210.37 243.68 206.41 250.11 202.22 257.26 198.15 265.02 194.18 273.2 189.97 281.85 185.86 290.82 181.86 300.07 177.63 309.51 173.52 319.02 169.57 328.68 165.43 338.33 161.48 347.89 157.78 357.52 153.99 367.01 150.51 376.3 147.4 385.63 144.32 394.72 141.7 403.53 139.61" stroke-dasharray="8 1" transform="rotate(12.12, 400, 400)" opacity="0.56"></path><path d="M393.34 150.41C401.56 148.51 409.29 147.23 416.52 146.58 423.72 146.16 430.42 146.4 436.61 147.29 442.81 148.46 448.56 150.27 453.92 152.71 459.39 155.42 464.62 158.72 469.72 162.59 475.18 166.68 480.77 171.29 486.69 176.36 493.28 181.61 500.5 187.27 508.5 193.3 517.44 199.43 527.31 205.88 538.13 212.6 549.72 219.37 561.99 226.37 574.64 233.56 587.25 240.75 599.45 248.11 610.69 255.61 620.54 263.07 628.46 270.66 633.93 278.35 637.02 286 637.31 293.75 634.81 301.59 630.45 309.38 624.25 317.27 616.97 325.24 610.14 333.18 604.15 341.21 599.97 349.34 598.84 357.43 600.81 365.64 606.1 373.93 614.72 382.22 625.76 390.61 638.17 399.09 650.91 407.58 662.34 416.16 671.05 424.82 676.27 433.49 676.94 442.03 673.13 450.42 665.64 458.81 654.98 467.03 642.38 475.07 629.27 483.08 616.68 490.88 605.69 498.42 597.27 505.92 591.68 513.14 588.99 520.04 589.36 526.86 591.93 533.32 595.97 539.39 601.28 545.34 606.52 550.87 610.92 555.93 615.28 563.07 610.89 574.64 601.94 579.04 593.74 581.7 584.08 583.87 573.41 585.58 562.01 587.26 550.23 588.54 538.41 589.45 526.62 590.47 515.15 591.23 504.16 591.79 493.55 592.61 483.48 593.35 473.95 594.06 464.81 595.2 456.1 596.43 447.74 597.8 439.65 599.72 431.74 601.86 423.96 604.22 416.29 607.18 408.63 610.37 400.91 613.76 393.22 617.67 385.42 621.7 377.52 625.76 369.61 630.15 361.79 634.31 354.08 638.13 346.4 641.99 338.88 645.32 331.59 648.07 324.38 650.6 317.47 652.39 310.92 653.4 301.51 653.91 285.16 649.97 278.29 645.56 273.92 641.9 269.94 637.48 266.28 632.36 262.45 626.88 258.75 620.78 255.06 614.15 250.89 607.26 246.51 599.93 241.81 592.24 236.41 584.4 230.57 576.28 224.3 567.95 217.41 559.55 210.23 551 202.93 542.35 195.49 533.71 188.33 525 181.72 516.27 175.65 507.56 170.56 498.86 166.65 490.17 163.69 481.53 162 472.9 161.54 464.32 161.75 455.78 162.79 447.27 164.38 438.81 165.76 430.37 167.05 421.97 167.98 413.64 167.9 405.31 167.16 397.03 165.76 388.82 163.44 380.6 160.92 372.64 158.55 364.94 156.23 357.24 154.74 349.8 154.33 342.62 154.82 335.44 156.68 328.52 159.88 321.88 164.01 315.23 169.2 308.86 175.17 302.77 181.41 296.66 187.9 290.83 194.38 285.29 200.35 279.71 205.93 274.4 211.03 269.36 217.17 261.84 226.44 247.88 230.35 241.37 234.14 234.85 244.21 222.38 250.98 216.35 256.11 212.17 261.93 208.09 268.36 204.12 275.19 199.92 282.54 195.82 290.31 191.84 298.37 187.65 306.73 183.59 315.28 179.69 324 175.62 332.8 171.76 341.6 168.14 350.48 164.44 359.29 161.05 367.94 158.02 376.63 155.02 385.11 152.46 393.33 150.41" stroke-dasharray="11 9" transform="rotate(16.16, 400, 400)" opacity="0.12"></path><path d="M384.52 161.21C392.2 159.35 399.5 158.07 406.43 157.39 413.35 156.92 419.92 157.07 426.15 157.84 432.44 158.86 438.49 160.49 444.36 162.72 450.42 165.19 456.46 168.24 462.62 171.82 469.17 175.62 476.05 179.91 483.4 184.66 491.36 189.58 499.97 194.9 509.3 200.59 519.31 206.4 530.02 212.52 541.32 218.92 552.96 225.37 564.81 232.07 576.54 238.97 587.75 245.88 598.1 252.97 607.11 260.21 614.55 267.43 619.94 274.78 622.97 282.24 623.92 289.67 622.46 297.2 618.78 304.82 613.84 312.4 607.7 320.07 601.09 327.82 595.36 335.54 590.78 343.34 588.14 351.22 588.4 359.08 591.49 367.02 597.49 375.03 606.31 383.03 617.1 391.11 628.9 399.25 640.83 407.39 651.45 415.6 659.56 423.86 664.55 432.12 665.45 440.23 662.28 448.17 655.75 456.1 646.2 463.84 634.66 471.38 622.35 478.89 610.15 486.17 599.03 493.18 589.92 500.15 583.14 506.83 578.9 513.18 577.45 519.47 578.21 525.4 580.66 530.94 586.92 538.91 598.77 552.54 601.21 558.13 599.78 563.11 585.24 570.68 573.13 573.36 563.69 575.02 553.5 576.35 542.87 577.37 531.94 578.51 520.97 579.44 510.18 580.2 499.49 581.22 489.14 582.19 479.2 583.14 469.5 584.48 460.21 585.92 451.29 587.47 442.59 589.52 434.18 591.75 426.02 594.17 417.97 597.11 410.09 600.25 402.33 603.54 394.61 607.29 386.96 611.12 379.38 614.96 371.8 619.09 364.45 622.99 357.37 626.57 350.29 630.2 343.49 633.36 337.02 635.96 327.54 639.28 310.57 641.92 303.16 641.07 296.18 638.84 283.82 629.97 278.09 623.49 274.01 618.6 269.89 613.13 265.64 607.13 260.85 600.88 255.76 594.18 250.32 587.11 244.24 579.88 237.78 572.35 230.99 564.58 223.76 556.72 216.42 548.69 209.14 540.53 201.92 532.35 195.16 524.07 189.09 515.75 183.68 507.44 179.29 499.1 176.09 490.77 173.79 482.46 172.69 474.16 172.7 465.9 173.25 457.66 174.5 449.45 176.18 441.3 177.57 433.16 178.8 425.06 179.64 417.03 179.49 409.01 178.69 401.05 177.25 393.15 174.91 385.26 172.37 377.62 169.93 370.25 167.49 362.86 165.8 355.74 165.09 348.87 165.2 342 166.61 335.38 169.32 329.04 172.96 322.67 177.7 316.57 183.31 310.74 189.33 304.88 195.74 299.27 202.3 293.94 208.54 288.55 214.53 283.42 220.14 278.53 225.01 273.57 229.41 268.84 233.36 264.33 238.1 257.51 246.2 244.6 250.36 238.44 254.86 232.16 266.74 219.91 274.3 213.91 279.83 209.74 285.91 205.67 292.43 201.72 299.23 197.58 306.39 193.58 313.83 189.74 321.44 185.76 329.24 181.99 337.12 178.45 345.1 174.86 353.09 171.56 361.02 168.62 368.98 165.71 376.83 163.22 384.51 161.22" stroke-dasharray="2 3" transform="rotate(20.200000000000003, 400, 400)" opacity="0.22"></path><path d="M378.89 172.02C386.1 170.19 393.1 168.92 399.89 168.21 406.69 167.7 413.31 167.77 419.8 168.42 426.37 169.3 432.89 170.76 439.44 172.77 446.2 175.02 453.13 177.81 460.32 181.1 467.88 184.61 475.85 188.59 484.31 193 493.24 197.59 502.73 202.57 512.76 207.91 523.15 213.37 533.95 219.14 544.96 225.2 555.9 231.32 566.63 237.69 576.81 244.26 586.16 250.87 594.34 257.66 600.98 264.59 606.04 271.53 609.11 278.61 610.04 285.79 609.28 292.96 606.57 300.24 602.2 307.59 597.15 314.93 591.45 322.35 585.77 329.84 581.28 337.31 578.15 344.85 576.96 352.45 578.48 360.03 582.52 367.69 589.06 375.38 597.96 383.08 608.42 390.83 619.58 398.62 630.7 406.4 640.55 414.23 648.08 422.08 652.83 429.92 653.91 437.6 651.33 445.08 645.7 452.56 637.23 459.83 626.76 466.87 615.33 473.9 603.67 480.68 592.65 487.19 583.11 493.65 575.43 499.83 569.89 505.68 566.31 514.19 570.76 529.29 576.02 535.79 583.76 546.63 578.1 558.65 569.48 561.29 562.27 562.97 554.07 564.37 545.15 565.5 535.7 566.77 525.9 567.87 515.97 568.84 505.9 570.05 495.92 571.23 486.16 572.39 476.48 573.93 467.08 575.54 458.01 577.24 449.07 579.4 440.43 581.7 432.09 584.15 423.84 587.07 415.84 590.13 408.08 593.31 400.35 596.9 392.82 600.54 385.49 604.16 378.16 608.04 371.18 611.69 364.56 615.04 357.93 618.44 351.66 621.41 345.76 623.87 337.09 627.06 321.59 629.87 314.71 629.32 308.01 627.54 295.38 619.95 289.08 614.26 284.48 609.95 279.75 605.06 274.79 599.68 269.3 594.05 263.51 587.98 257.38 581.53 250.73 574.91 243.82 567.97 236.72 560.79 229.38 553.5 222.09 546.01 215.05 538.38 208.26 530.69 202.06 522.9 196.67 515.03 191.99 507.16 188.36 499.23 185.88 491.3 184.23 483.37 183.67 475.43 184.1 467.52 184.93 459.63 186.34 451.76 188.06 443.93 189.42 436.12 190.57 428.35 191.3 420.64 191.07 412.94 190.21 405.3 188.73 397.73 186.39 390.16 183.84 382.84 181.36 375.77 178.83 368.7 176.96 361.88 175.99 355.3 175.73 348.72 176.69 342.38 178.89 336.3 182 330.2 186.23 324.34 191.39 318.73 197.06 313.09 203.27 307.69 209.76 302.53 216.13 297.32 222.4 292.34 228.41 287.57 233.84 282.74 238.85 278.1 243.43 273.67 249.09 266.95 258.34 254.15 262.56 248.01 266.66 241.75 276.63 229.53 282.81 223.55 287.27 219.42 292.23 215.39 297.64 211.49 303.25 207.42 309.26 203.49 315.61 199.73 322.11 195.85 328.87 192.17 335.81 188.73 342.84 185.25 349.99 182.05 357.19 179.2 364.43 176.39 371.67 173.98 378.88 172.02" stroke-dasharray="8 6" transform="rotate(24.24, 400, 400)" opacity="0.77"></path><path d="M377.62 182.82C384.45 181.04 391.23 179.78 397.98 179.05 404.75 178.5 411.52 178.49 418.32 179.03 425.22 179.78 432.23 181.07 439.41 182.88 446.79 184.9 454.43 187.44 462.4 190.45 470.65 193.67 479.31 197.33 488.37 201.42 497.71 205.66 507.43 210.29 517.44 215.27 527.53 220.37 537.69 225.79 547.71 231.48 557.36 237.25 566.45 243.26 574.68 249.48 581.92 255.75 587.84 262.2 592.17 268.81 595.06 275.44 596.15 282.2 595.42 289.07 593.44 295.95 590 302.93 585.41 309.99 580.65 317.04 575.7 324.18 571.15 331.37 567.98 338.55 566.26 345.8 566.43 353.09 569.04 360.37 573.87 367.71 580.79 375.07 589.65 382.44 599.71 389.84 610.2 397.25 620.53 404.67 629.62 412.1 636.6 419.53 641.1 426.95 642.34 434.19 640.3 441.22 635.51 448.25 628.07 455.06 618.66 461.64 608.18 468.19 597.19 474.5 586.46 480.52 576.76 486.52 568.45 492.22 561.87 497.61 556.1 505.46 555.76 519.33 559.29 525.31 567.36 541.06 554.11 551.87 544.11 553.87 536.52 555.28 528.34 556.55 519.77 557.7 510.89 559.11 501.87 560.47 492.84 561.83 483.74 563.53 474.76 565.28 465.99 567.12 457.24 569.36 448.73 571.71 440.5 574.17 432.31 577.04 424.38 580.03 416.73 583.09 409.1 586.51 401.72 589.95 394.6 593.35 387.48 596.99 380.76 600.4 374.44 603.53 368.1 606.7 362.14 609.48 356.55 611.8 348.29 614.85 333.29 617.75 326.4 617.45 319.46 616.07 305.7 609.64 298.51 604.68 293.27 600.9 287.84 596.58 282.17 591.78 276.04 586.75 269.63 581.28 262.98 575.44 255.98 569.44 248.84 563.11 241.67 556.51 234.46 549.81 227.47 542.88 220.89 535.79 214.69 528.64 209.2 521.35 204.58 513.97 200.69 506.57 197.84 499.1 196.07 491.59 195.03 484.09 194.96 476.56 195.74 469.04 196.8 461.52 198.3 454.02 200.01 446.55 201.3 439.09 202.35 431.67 202.96 424.3 202.65 416.93 201.72 409.62 200.22 402.38 197.89 395.14 195.35 388.14 192.85 381.38 190.26 374.61 188.25 368.08 187.02 361.78 186.43 355.47 186.96 349.4 188.64 343.56 191.2 337.7 194.86 332.07 199.49 326.66 204.72 321.22 210.58 316 216.86 311 223.19 305.94 229.57 301.09 235.85 296.43 241.71 291.7 247.25 287.16 252.43 282.79 259.09 276.16 270.01 263.46 274.71 257.34 278.94 251.12 288.12 238.98 293.45 233.05 297.17 228.97 301.31 224.99 305.86 221.15 310.51 217.16 315.57 213.32 320.99 209.65 326.5 205.88 332.33 202.31 338.43 198.98 344.58 195.61 350.95 192.53 357.5 189.77 364.07 187.06 370.78 184.72 377.61 182.82" stroke-dasharray="0 6" transform="rotate(28.28, 400, 400)" opacity="0.78"></path><path d="M380.96 193.62C387.49 191.89 394.11 190.65 400.84 189.9 407.59 189.32 414.49 189.25 421.54 189.67 428.67 190.29 436.01 191.42 443.6 193.04 451.33 194.85 459.35 197.14 467.68 199.88 476.17 202.8 484.97 206.15 494.02 209.91 503.16 213.81 512.46 218.09 521.79 222.7 530.95 227.44 539.9 232.48 548.42 237.79 556.35 243.18 563.51 248.82 569.63 254.67 574.74 260.58 578.51 266.67 580.79 272.92 581.87 279.19 581.43 285.61 579.55 292.14 576.85 298.69 573.15 305.34 568.79 312.07 564.64 318.8 560.67 325.61 557.36 332.47 555.53 339.34 555.15 346.26 556.52 353.21 560.07 360.17 565.5 367.16 572.65 374.17 581.36 381.18 590.95 388.21 600.76 395.24 610.31 402.27 618.67 409.29 625.11 416.3 629.37 423.3 630.74 430.1 629.18 436.7 625.17 443.28 618.71 449.65 610.35 455.77 600.85 461.88 590.63 467.73 580.38 473.32 570.75 478.88 562.09 484.15 554.77 489.12 547.16 496.36 542.23 509.17 543.71 514.7 552.12 529.6 546.15 540.34 539.11 542.52 533.47 544.06 527.11 545.49 520.19 546.82 512.88 548.38 505.21 549.92 497.33 551.45 489.28 553.28 481.16 555.16 473.09 557.1 464.97 559.39 456.96 561.76 449.12 564.22 441.3 567.04 433.67 569.93 426.27 572.86 418.89 576.11 411.73 579.36 404.82 582.55 397.91 585.95 391.38 589.12 385.23 592.03 379.05 594.99 373.22 597.57 367.71 599.75 359.5 602.64 344.19 605.58 336.89 605.49 329.38 604.45 313.99 599.06 305.81 594.77 299.96 591.48 293.9 587.69 287.62 583.44 281.01 578.98 274.22 574.1 267.28 568.85 260.18 563.44 253.08 557.71 246.11 551.7 239.28 545.58 232.81 539.24 226.88 532.7 221.43 526.1 216.75 519.34 212.96 512.48 209.88 505.58 207.79 498.59 206.68 491.54 206.2 484.49 206.55 477.39 207.6 470.29 208.82 463.19 210.36 456.08 212.02 448.99 213.21 441.91 214.13 434.85 214.61 427.84 214.2 420.83 213.22 413.86 211.7 406.96 209.39 400.05 206.88 393.36 204.39 386.9 201.76 380.43 199.63 374.18 198.2 368.16 197.3 362.11 197.41 356.29 198.6 350.68 200.59 345.04 203.66 339.62 207.7 334.4 212.38 329.15 217.77 324.09 223.7 319.23 229.82 314.31 236.14 309.58 242.51 305.02 248.63 300.4 254.57 295.93 260.23 291.62 265.4 287.21 270.23 282.95 274.76 278.82 280.64 272.51 290.92 260.27 295.74 254.31 300.36 248.24 310.6 236.42 316.45 230.7 320.48 226.82 324.86 223.08 329.6 219.51 334.37 215.86 339.49 212.41 344.92 209.19 350.37 205.95 356.12 202.98 362.13 200.33 368.15 197.72 374.43 195.47 380.95 193.63" stroke-dasharray="6 1" transform="rotate(32.32, 400, 400)" opacity="0.84"></path><path d="M388.24 204.43C394.51 202.75 400.98 201.53 407.64 200.77 414.31 200.16 421.21 200.02 428.32 200.35 435.48 200.85 442.9 201.83 450.55 203.25 458.27 204.86 466.24 206.91 474.43 209.38 482.65 212.02 491.04 215.07 499.51 218.49 507.9 222.06 516.22 225.98 524.33 230.22 532.12 234.59 539.46 239.24 546.17 244.16 552.22 249.17 557.37 254.42 561.44 259.88 564.6 265.4 566.53 271.11 567.14 276.97 566.87 282.87 565.4 288.92 562.87 295.08 559.94 301.26 556.42 307.55 552.62 313.91 549.34 320.29 546.5 326.75 544.48 333.25 543.94 339.77 544.78 346.33 547.21 352.92 551.5 359.51 557.37 366.14 564.61 372.77 573.07 379.41 582.14 386.05 591.26 392.68 600.04 399.31 607.7 405.93 613.63 412.5 617.64 419.08 619.1 425.45 617.98 431.61 614.68 437.77 609.14 443.7 601.8 449.4 593.3 455.08 583.95 460.52 574.31 465.69 564.96 470.84 556.22 475.72 548.44 480.31 539.43 487.02 530.33 498.9 529.65 504.05 535.26 523.69 523.93 533.9 516.39 536.18 510.76 537.89 504.63 539.57 498.13 541.24 491.41 543.18 484.46 545.15 477.38 547.17 470.21 549.49 462.99 551.87 455.82 554.3 448.63 557.05 441.51 559.83 434.53 562.64 427.55 565.71 420.72 568.76 414.04 571.75 407.37 574.91 401.01 577.86 394.95 580.54 388.86 583.29 383.04 585.69 377.45 587.72 369.08 590.44 352.98 593.37 345.05 593.45 339.59 593.13 334.1 592.27 328.55 590.89 322.75 589.28 316.82 587.16 310.75 584.54 304.41 581.7 297.91 578.4 291.27 574.66 284.43 570.74 277.52 566.41 270.6 561.73 263.67 556.9 256.89 551.75 250.39 546.32 244.15 540.78 238.4 535.01 233.26 529.03 228.66 522.99 224.85 516.78 221.91 510.44 219.63 504.06 218.25 497.58 217.75 491.02 217.74 484.44 218.43 477.8 219.68 471.14 220.99 464.47 222.51 457.78 224.07 451.1 225.14 444.42 225.91 437.75 226.25 431.1 225.75 424.46 224.72 417.85 223.18 411.29 220.92 404.72 218.45 398.36 215.98 392.19 213.35 386.03 211.14 380.06 209.53 374.29 208.22 365.72 211.46 349.5 216.09 341.85 220.15 336.77 224.98 331.87 230.42 327.14 236.17 322.37 242.25 317.75 248.52 313.29 254.7 308.76 260.84 304.37 266.83 300.13 272.46 295.8 277.84 291.59 282.96 287.5 289.82 281.27 301.85 269.17 307.32 263.29 312.37 257.32 322.75 245.73 328.36 240.15 334.14 234.57 347.17 224.12 354.49 219.37 359.46 216.26 364.77 213.41 370.39 210.87 376.01 208.37 381.96 206.21 388.23 204.43" stroke-dasharray="2 7" transform="rotate(36.36, 400, 400)" opacity="0.61"></path><path d="M397.94 215.23C403.98 213.61 410.25 212.42 416.73 211.66 423.22 211.02 429.94 210.83 436.86 211.07 450.79 212.01 465.52 214.7 480.7 218.97 495.64 223.85 510.36 230.23 523.88 237.86 535.75 245.94 544.91 255.12 550.26 265.16 552.68 275.45 551.03 286.45 545.94 297.95 540.6 309.55 535.34 321.57 532.58 333.8 535.36 346.07 543.5 358.53 556.65 371 564.77 377.24 573.27 383.48 581.69 389.7 589.73 395.92 596.71 402.12 602.14 408.27 605.91 414.42 607.44 420.38 606.7 426.12 604.04 431.86 599.37 437.38 593.01 442.67 577.22 453.21 559.36 462.81 542.75 471.35 529.96 479.81 521.61 487.21 517.39 493.5 518.18 502.39 521.57 515.66 517.47 520.67 512.28 524.41 504.39 527.88 494.43 531.2 483.56 535.5 471.49 539.91 458.86 544.41 452.47 547.07 446.04 549.74 439.6 552.41 433.16 555.31 426.74 558.17 420.37 560.94 414 563.88 407.82 566.6 401.83 569.08 395.82 571.61 389.97 573.83 384.26 575.71 372.68 579.32 361.37 581.22 350.12 581.34 338.26 580.8 326.05 578.31 313.4 574.01 300.13 568.97 286.61 562.24 273.35 554.09 260.6 545.39 249.27 535.51 240.27 524.75 233.42 513.72 229.72 502.02 229.25 489.91 230.25 477.73 232.93 465.27 236.15 452.74 237.06 446.47 237.67 440.2 237.87 433.94 237.28 427.68 236.2 421.44 234.67 415.22 232.45 409.01 230.05 402.97 227.62 397.11 225.01 391.25 222.75 385.56 221 380.05 218.7 369 219.92 358.61 224.76 348.91 232.15 339.07 242.28 329.82 254.05 321.16 266.08 312.25 278.1 303.81 289.52 295.86 299.55 287.53 308.75 279.57 317.37 272.04 324.79 264.09 332.29 256.53 340.25 249.5 347.72 242.14 356.15 235.4 365.7 229.51 370.43 226.54 375.47 223.83 380.84 221.4 386.19 219.01 391.89 216.94 397.93 215.23" stroke-dasharray="8 1" transform="rotate(40.400000000000006, 400, 400)" opacity="0.36"></path><path d="M408.07 226.03C419.67 223.03 432.06 221.64 445.03 221.82 457.99 222.54 471.36 224.86 484.66 228.66 497.46 233 509.42 238.72 519.69 245.63 528.3 252.96 534.12 261.34 536.51 270.55 536.83 280.01 534.11 290.18 529.25 300.83 525.17 311.62 522.03 322.81 521.69 334.22 526.38 345.69 535.6 357.33 548.72 368.98 564.48 380.65 579.58 392.3 590.66 403.76 596.07 415.21 593.5 425.9 583.97 435.72 570.1 445.51 553.68 454.41 537.51 462.34 523.92 470.23 513.71 477.17 507.08 483.12 504.05 491.66 504.76 504.92 502.33 510.22 499.22 514.13 493.74 517.81 486.2 521.33 477.89 525.71 468.07 530.12 457.22 534.54 446.16 539.88 434.49 545.15 422.49 550.14 410.49 555.68 398.72 560.27 387.19 563.73 375.5 567.09 363.77 568.92 351.9 569.16 339.64 568.88 327.03 566.86 314.19 563.2 301.16 558.93 288.26 553.09 276.07 545.92 264.79 538.28 255.22 529.48 248.09 519.81 242.98 509.87 240.7 499.23 241.18 488.14 242.63 476.96 245.32 465.44 248.23 453.78 249.12 442.11 248.5 430.34 246.15 418.64 241.34 406.93 236.43 395.8 232.63 385.32 229.86 374.79 230.17 364.84 233.79 355.49 239.79 346.01 248.6 337.05 259.33 328.6 270.79 319.93 282.74 311.68 294.51 303.86 305.39 295.73 315.63 287.94 325.27 280.58 333.84 272.86 342.24 265.53 350.77 258.73 358.74 251.68 367.33 245.24 376.78 239.62 386.06 233.99 396.45 229.38 408.06 226.04" stroke-dasharray="2 8" transform="rotate(44.44, 400, 400)" opacity="0.77"></path><path d="M416.53 236.84C427.58 233.96 439.07 232.56 450.77 232.61 462.37 233.13 473.92 235.11 484.91 238.45 495.28 242.26 504.4 247.35 511.58 253.56 517.34 260.14 520.53 267.72 520.9 276.1 520.06 284.72 517.21 294.03 513.3 303.82 510.87 313.75 509.92 324.08 511.78 334.63 518.03 345.25 527.97 356.05 540.81 366.85 555.46 377.69 569.16 388.49 579.18 399.11 584.33 409.73 582.58 419.63 574.65 428.73 562.69 437.8 547.89 446.06 532.57 453.45 518.76 460.83 507.31 467.37 498.73 473.04 492.04 481.27 488.24 494.55 486 500.09 483.91 504.14 479.97 507.97 474.2 511.62 467.93 516.02 460.04 520.4 450.85 524.7 441.47 529.77 431.11 534.72 419.97 539.34 408.83 544.42 397.49 548.62 386.04 551.77 374.52 554.88 362.74 556.62 350.74 556.95 338.59 556.87 326.2 555.24 313.82 552.15 301.65 548.55 289.95 543.52 279.3 537.26 269.8 530.59 262.14 522.83 256.87 514.19 253.35 505.32 252.29 495.73 253.49 485.65 255.21 475.46 257.77 464.89 260.3 454.12 260.86 443.33 260.01 432.37 257.64 421.4 253.01 410.43 248.26 399.94 244.4 389.99 241.27 380 240.78 370.5 243.23 361.51 247.84 352.42 255.2 343.76 264.63 335.56 275.11 327.16 286.51 319.13 298.14 311.5 309.38 303.61 320.27 296.04 330.68 288.88 340.26 281.44 349.56 274.39 358.77 267.87 367.44 261.14 376.44 255.02 385.97 249.7 395.32 244.38 405.47 240.02 416.53 236.84" stroke-dasharray="6 9" transform="rotate(48.48, 400, 400)" opacity="0.73"></path><path d="M421.57 247.64C431.95 244.9 442.35 243.51 452.53 243.45 462.58 243.78 472.12 245.44 480.73 248.34 488.74 251.66 495.29 256.15 499.91 261.67 503.5 267.53 504.94 274.32 504.26 281.86 503.17 289.64 500.95 298.07 498.5 306.98 497.92 316.03 499.06 325.48 502.82 335.15 510.25 344.9 520.55 354.83 532.88 364.77 546.36 374.75 558.7 384.71 567.69 394.5 572.57 404.29 571.52 413.42 565.07 421.83 554.95 430.23 541.88 437.9 527.74 444.81 514.24 451.71 502.18 457.89 492.24 463.33 482.4 471.29 473.15 484.56 469.91 490.28 467.88 494.41 464.59 498.34 459.86 502.07 454.89 506.44 448.43 510.73 440.61 514.88 432.65 519.68 423.51 524.29 413.32 528.53 403.13 533.18 392.46 536.99 381.45 539.85 370.45 542.69 359.1 544.32 347.55 544.7 336.06 544.77 324.51 543.47 313.22 540.86 302.42 537.85 292.36 533.56 283.58 528.12 275.99 522.34 270.24 515.54 266.71 507.9 264.57 500.04 264.47 491.47 266.14 482.37 267.94 473.18 270.24 463.56 272.35 453.67 272.56 443.77 271.51 433.64 269.12 423.42 264.7 413.2 260.15 403.37 256.31 393.97 252.92 384.55 251.77 375.52 253.15 366.93 256.4 358.25 262.25 349.93 270.2 342.01 279.39 333.92 289.8 326.16 300.8 318.77 311.85 311.17 322.86 303.87 333.6 296.97 343.84 289.85 353.79 283.12 363.52 276.9 372.84 270.54 382.24 264.76 391.84 259.74 401.29 254.75 411.19 250.65 421.57 247.64" stroke-dasharray="7 0" transform="rotate(52.52, 400, 400)" opacity="0.28"></path><path d="M422.17 258.44C431.76 255.85 440.96 254.49 449.58 254.32 458.05 254.48 465.69 255.86 472.18 258.35 480.46 263.15 488.09 278.13 487.57 287.86 486.95 294.8 485.9 302.37 485.19 310.39 486.47 318.55 489.47 327.1 494.75 335.89 502.94 344.75 513.27 353.79 524.91 362.87 537.17 371.98 548.18 381.09 556.21 390.07 560.79 399.05 560.34 407.45 555.21 415.21 546.84 422.96 535.56 430.08 522.85 436.53 510.12 443 498.04 448.85 487.36 454.07 478.65 459.39 471.65 464.16 466.07 468.43 460.48 474.98 451.07 486.94 444.96 492.67 440.57 496.95 434.96 501.11 428.12 505.08 421.21 509.58 413.12 513.85 403.92 517.73 394.72 521.95 384.92 525.39 374.73 527.95 364.6 530.53 354.14 532.04 343.6 532.43 333.27 532.61 323.07 531.58 313.37 529.38 304.28 526.88 296.12 523.23 289.33 518.54 283.63 513.58 279.65 507.66 277.6 500.94 276.56 494.04 277.14 486.44 279.04 478.3 280.75 470.07 282.71 461.39 284.35 452.39 284.23 443.37 282.99 434.08 280.6 424.63 276.42 415.18 272.11 406.02 268.36 397.21 264.83 388.37 263.14 379.85 263.59 371.68 265.59 363.45 269.95 355.51 276.33 347.92 284 340.2 293.06 332.77 302.99 325.67 313.3 318.4 323.88 311.43 334.42 304.85 344.78 298.09 354.95 291.71 364.87 285.84 374.54 279.87 384.11 274.46 393.62 269.76 403.04 265.1 412.57 261.27 422.17 258.44" stroke-dasharray="2 4" transform="rotate(56.56, 400, 400)" opacity="0.68"></path><path d="M418.18 269.25C426.9 266.81 434.91 265.48 442.09 265.23 452.18 265.81 466.26 272.56 469.74 278.48 471.42 282.96 471.97 288.23 471.73 294.16 472.09 300.28 472.51 306.99 473.6 314.14 476.56 321.41 481.09 329.06 487.45 336.96 496.03 344.92 506.09 353.08 516.87 361.3 527.89 369.54 537.62 377.81 544.73 385.99 548.99 394.17 549.02 401.85 545.09 408.98 538.34 416.11 528.84 422.71 517.72 428.74 506.14 434.79 494.57 440.33 483.77 445.33 474.24 450.44 465.98 455.09 458.94 459.31 453.29 463.74 448.39 467.85 443.85 471.64 440.04 475.77 435.98 479.7 431.37 483.41 426.94 487.55 421.66 491.53 415.43 495.29 409.19 499.48 401.94 503.4 393.72 506.93 385.49 510.73 376.73 513.81 367.65 516.09 358.65 518.4 349.47 519.77 340.35 520.16 331.52 520.4 323.01 519.58 315.17 517.74 307.94 515.67 301.73 512.58 296.85 508.56 292.86 504.32 290.38 499.21 289.5 493.35 289.25 487.34 290.22 480.66 292.11 473.44 293.59 466.14 295.13 458.37 296.28 450.25 295.84 442.11 294.44 433.66 292.09 424.99 288.17 416.32 284.13 407.85 280.53 399.65 276.97 391.43 274.89 383.45 274.58 375.76 275.48 368.02 278.44 360.52 283.26 353.31 289.29 346.01 296.79 338.95 305.3 332.21 314.41 325.33 324.04 318.74 333.86 312.51 343.75 306.17 353.6 300.19 363.25 294.69 372.82 289.13 382.21 284.1 391.37 279.75 400.5 275.44 409.47 271.88 418.18 269.25" stroke-dasharray="6 2" transform="rotate(60.599999999999994, 400, 400)" opacity="0.73"></path><path d="M410.45 280.05C418.23 277.78 425.16 276.5 431.17 276.18 439.56 276.52 450.89 282.15 453.88 287.21 456.21 293.33 460.13 309.04 463.82 318.27 468.16 324.67 473.8 331.44 480.81 338.46 489.42 345.53 498.95 352.81 508.75 360.18 518.51 367.56 527.01 375.01 533.25 382.4 537.17 389.79 537.59 396.78 534.69 403.3 529.42 409.83 521.65 415.91 512.2 421.53 502.02 427.17 491.42 432.39 481.05 437.17 471.38 442.05 462.5 446.55 454.53 450.69 447.61 455.01 441.41 459.05 435.72 462.8 430.72 466.84 425.79 470.67 420.69 474.28 415.85 478.23 410.53 482 404.61 485.52 398.72 489.37 392.12 492.95 384.8 496.12 377.49 499.52 369.83 502.25 362.04 504.26 354.33 506.31 346.63 507.53 339.16 507.9 328.62 507.83 311.67 502.95 306.25 498.22 303 492.44 303.02 477.07 305.26 467.81 306.39 461.4 307.45 454.51 308.13 447.25 307.39 439.97 305.86 432.36 303.57 424.48 299.93 416.61 296.2 408.85 292.81 401.3 289.32 393.72 287 386.32 286.11 379.16 286.09 371.95 287.83 364.93 291.19 358.17 295.6 351.33 301.43 344.72 308.34 338.38 315.91 331.96 324.18 325.8 332.82 319.98 341.72 314.09 350.73 308.54 359.65 303.46 368.62 298.33 377.42 293.71 385.92 289.71 394.44 285.75 402.66 282.49 410.45 280.05" stroke-dasharray="8 3" transform="rotate(64.64, 400, 400)" opacity="0.38"></path><path d="M400.55 290.86C410.4 288.15 425.79 287.31 431.28 289.08 435.99 291.91 442.65 301.37 445.68 307.76 448.5 312.32 451.81 317.39 455.84 322.86 461.15 328.41 467.46 334.32 474.7 340.48 482.99 346.68 491.77 353.09 500.5 359.62 509.02 366.16 516.36 372.79 521.77 379.41 525.34 386.04 526.05 392.33 524.03 398.26 520.08 404.19 513.93 409.77 506.17 414.97 497.56 420.2 488.25 425.09 478.78 429.62 469.55 434.23 460.69 438.54 452.41 442.54 444.81 446.7 437.78 450.61 431.27 454.27 425.32 458.15 419.6 461.83 413.98 465.28 408.63 469 403.11 472.51 397.34 475.76 391.62 479.27 385.52 482.49 379.03 485.32 372.54 488.33 365.98 490.72 359.49 492.47 349.98 494.79 332.95 495.65 326.19 494.09 318.22 487.14 316.55 469.51 318.38 461.46 319.09 455.88 319.66 449.84 319.88 443.42 318.88 436.98 317.26 430.2 315.05 423.12 311.72 416.05 308.33 409.04 305.2 402.15 301.88 395.26 299.47 388.48 298.17 381.89 297.46 375.26 298.17 368.79 300.26 362.53 303.18 356.22 307.39 350.1 312.64 344.23 318.53 338.31 325.2 332.63 332.37 327.27 339.87 321.86 347.63 316.79 355.43 312.14 363.36 307.48 371.2 303.27 378.78 299.64 386.4 296.05 393.71 293.09 400.55 290.86" stroke-dasharray="1 8" transform="rotate(68.68, 400, 400)" opacity="0.60"></path><path d="M390.54 301.66C402.42 297.98 411.57 297.41 418.17 299.57 425.15 302.33 430.8 307.7 436.43 315.1 444.85 322.92 455.65 332.47 468.95 343.08 484.72 353.84 499.9 365.4 510.28 377.14 515.07 388.87 510.73 399.63 499.5 409.14 484.92 418.77 468.13 427.4 451.92 434.89 437.09 442.88 423.68 450.13 411.6 456.39 400.37 463.46 389.08 469.71 377.58 474.51 366.08 479.89 355.42 482.88 346.52 483.44 335.35 482.7 328.72 467.75 331.35 454.47 331.11 444.83 329.67 433.5 326.54 420.96 319.76 408.43 313.92 395.92 310.71 383.98 308.88 371.98 311.75 360.4 318.65 349.77 327.65 338.99 339.38 329.11 352.09 320.76 365.42 312.41 378.66 305.78 390.54 301.66" stroke-dasharray="4 4" transform="rotate(72.72, 400, 400)" opacity="0.78"></path><path d="M382.48 312.46C392.67 309.15 401.12 308.5 408.02 310.19 415.43 312.32 422.43 316.7 429.87 322.85 439.43 329.31 450.75 337.32 463.41 346.34 477.32 355.47 490.13 365.41 498.8 375.66 503.25 385.9 500.52 395.46 492.1 404.05 480.7 412.76 466.65 420.71 452.26 427.71 438.27 435.09 425.06 441.81 413.12 447.6 401.74 453.98 390.9 459.53 380.76 463.71 370.61 468.32 362.02 470.83 355.43 471.26 347.15 470.67 342.65 458.16 344.07 446.91 343.04 438.74 341.09 429 338.02 418.08 332.05 407.16 326.88 396.13 323.7 385.51 321.15 374.86 322.22 364.54 326.63 355.04 332.57 345.47 341.12 336.69 351.01 329.3 361.45 321.95 372.3 316.12 382.48 312.46" stroke-dasharray="8 0" transform="rotate(76.76, 400, 400)" opacity="0.13"></path><path d="M378.04 323.27C386.67 320.35 394.57 319.66 401.8 320.94 409.5 322.53 417.38 326.01 425.81 331 435.61 336.21 446.55 342.78 457.93 350.29 469.74 357.87 480.25 366.25 487.31 375.02 491.34 383.79 489.88 392.12 483.92 399.75 475.53 407.45 464.49 414.6 452.57 420.98 440.43 427.63 428.47 433.7 417.47 438.91 406.75 444.53 396.76 449.35 387.91 452.91 368.06 458.22 356.39 448.29 356.43 438.91 354.73 432.09 352.44 423.88 349.51 414.56 344.36 405.25 339.95 395.75 337.03 386.54 334.24 377.32 334.13 368.34 336.65 360.07 340.12 351.78 345.9 344.18 353.18 337.8 360.88 331.47 369.4 326.44 378.04 323.27" stroke-dasharray="3 10" transform="rotate(80.80000000000001, 400, 400)" opacity="0.15"></path><path d="M378.13 334.07C385.32 331.57 392.58 330.9 399.79 331.82 407.32 332.95 415.33 335.63 423.77 339.56 432.95 343.64 442.72 348.87 452.35 354.95 461.94 361.07 470.24 367.93 475.83 375.25 479.35 382.56 478.83 389.63 474.91 396.19 469.21 402.82 461.16 409.06 452 414.67 442.36 420.47 432.45 425.77 423.09 430.3 413.78 435.09 405.1 439.16 397.55 442.1 380.85 446.35 369.6 438.2 368.32 430.55 366.16 425 363.69 418.26 360.99 410.55 356.7 402.83 353.09 394.9 350.63 387.16 347.99 379.43 347.28 371.88 348.56 364.92 350.29 357.95 353.93 351.59 359.07 346.24 364.44 340.95 370.93 336.75 378.13 334.07" stroke-dasharray="7 9" transform="rotate(84.84, 400, 400)" opacity="0.21"></path><path d="M382.73 344.87C394.38 340.91 408.41 342.65 423.1 348.52 438.92 354.73 454.86 364.61 464.35 376.33 468.72 388.05 462.16 399.44 449.84 408.76 435.65 418.52 420.07 426.78 407.7 431.3 395.32 436.36 388.04 436.32 385.02 431.92 380.06 427.42 376.02 418.43 372.47 406.16 364.79 393.9 360.79 380.82 361.98 369.62 363.65 358.47 371.08 349.31 382.73 344.87" stroke-dasharray="8 4" transform="rotate(88.88, 400, 400)" opacity="0.75"></path><path d="M390.9 355.68C399.81 352.6 411.28 353.7 423 357.88 434.91 362.23 446.28 369.42 452.86 378.24 456.62 387.05 453.23 395.87 445.56 403.19 436.58 410.75 425.72 417.1 416.26 420.5 406.79 424.2 400.32 424.06 396.54 420.72 391.48 417.36 387.16 410.7 383.96 401.57 378.33 392.43 375.56 382.64 376.37 374.23 377.03 365.89 381.98 359.03 390.9 355.68" stroke-dasharray="8 7" transform="rotate(92.92, 400, 400)" opacity="0.53"></path><path d="M400.94 366.48C413.12 362.38 432.34 369.09 441.38 380.9 445.54 392.7 434.23 405.31 421.46 409.69 408.68 414.6 399.19 409.01 395.44 396.91 387.31 384.81 388.75 371.07 400.94 366.48" stroke-dasharray="6 7" transform="rotate(96.96, 400, 400)" opacity="0.63"></path></g></svg>